<svg xmlns="http://www.w3.org/2000/svg" xmlns:xlink="http://www.w3.org/1999/xlink" width="500" zoomAndPan="magnify" viewBox="0 0 375 374.999991" height="500" preserveAspectRatio="xMidYMid meet" version="1.0"><defs><clipPath id="2db2ba7d47"><path d="M 95.050781 89.417969 L 291.550781 89.417969 L 291.550781 285.917969 L 95.050781 285.917969 Z M 95.050781 89.417969 " clip-rule="nonzero"/></clipPath><clipPath id="6c4393f8ca"><path d="M 95.050781 113 L 120 113 L 120 139 L 95.050781 139 Z M 95.050781 113 " clip-rule="nonzero"/></clipPath><clipPath id="e1b926373b"><path d="M 95.050781 236 L 120 236 L 120 261 L 95.050781 261 Z M 95.050781 236 " clip-rule="nonzero"/></clipPath></defs><rect x="-37.5" width="450" fill="#ffffff" y="-37.499999" height="449.999989" fill-opacity="1"/><rect x="-37.5" width="450" fill="#41c1ba" y="-37.499999" height="449.999989" fill-opacity="1"/><path fill="#ffffff" d="M 193.074219 236.476562 L 119.523438 236.476562 L 119.523438 211.960938 L 193.074219 211.960938 C 206.613281 211.960938 217.59375 200.980469 217.59375 187.441406 C 217.59375 173.902344 206.613281 162.921875 193.074219 162.921875 L 119.523438 162.921875 L 119.523438 138.40625 L 193.074219 138.40625 C 220.152344 138.40625 242.109375 160.363281 242.109375 187.441406 C 242.109375 214.519531 220.152344 236.476562 193.074219 236.476562 " fill-opacity="1" fill-rule="nonzero"/><path fill="#f4f6fc" d="M 144.039062 260.996094 L 119.523438 236.476562 L 144.039062 236.476562 L 144.039062 260.996094 " fill-opacity="1" fill-rule="nonzero"/><path fill="#f4f6fc" d="M 144.039062 138.40625 L 119.523438 138.40625 L 144.039062 113.886719 L 144.039062 138.40625 " fill-opacity="1" fill-rule="nonzero"/><g clip-path="url(#2db2ba7d47)"><path fill="#ffffff" d="M 193.074219 285.511719 L 95.003906 285.511719 L 95.003906 260.996094 L 193.074219 260.996094 C 233.691406 260.996094 266.632812 228.058594 266.632812 187.441406 C 266.632812 146.824219 233.691406 113.886719 193.074219 113.886719 L 95.003906 113.886719 L 95.003906 89.371094 L 193.074219 89.371094 C 247.234375 89.371094 291.148438 133.285156 291.148438 187.441406 C 291.148438 241.597656 247.234375 285.511719 193.074219 285.511719 " fill-opacity="1" fill-rule="nonzero"/></g><g clip-path="url(#6c4393f8ca)"><path fill="#f4f6fc" d="M 119.523438 138.40625 L 95.003906 113.886719 L 119.523438 113.886719 L 119.523438 138.40625 " fill-opacity="1" fill-rule="nonzero"/></g><g clip-path="url(#e1b926373b)"><path fill="#f4f6fc" d="M 119.523438 260.996094 L 95.003906 260.996094 L 119.523438 236.476562 L 119.523438 260.996094 " fill-opacity="1" fill-rule="nonzero"/></g></svg>